<?xml version="1.0" encoding="utf-8"?>
<!-- Generator: Adobe Illustrator 12.0.0, SVG Export Plug-In . SVG Version: 6.00 Build 51448)  -->
<!DOCTYPE svg PUBLIC "-//W3C//DTD SVG 1.1//EN" "http://www.w3.org/Graphics/SVG/1.1/DTD/svg11.dtd" [
	<!ENTITY ns_svg "http://www.w3.org/2000/svg">
	<!ENTITY ns_xlink "http://www.w3.org/1999/xlink">
]>
<svg  version="1.1" id="Vrstva_1" xmlns="&ns_svg;" xmlns:xlink="&ns_xlink;" width="400.025" height="380.481"
	 viewBox="0 0 400.025 380.481" overflow="visible" enable-background="new 0 0 400.025 380.481" xml:space="preserve">
<ellipse transform="matrix(-0.3966 -0.918 0.918 -0.3966 -10.6825 169.6358)" stroke="#000000" stroke-width="5" stroke-linecap="round" cx="50.412" cy="88.329" rx="10.259" ry="13.141"/>
<path stroke="#000000" stroke-width="5" stroke-linecap="round" d="M11.912,102.544c3.867,1.011,6.064,5.281,4.906,9.538
	s-5.234,6.888-9.103,5.878c-3.867-1.011-6.064-5.281-4.906-9.538S8.043,101.534,11.912,102.544z"/>
<path fill="none" stroke="#000000" stroke-width="5" stroke-linecap="round" d="M117.508,259.19
	c-7.658-11.997-14.515-25.251-20.344-38.587"/>
<path fill="none" stroke="#000000" stroke-width="5" stroke-linecap="round" d="M88.216,197.878
	c-9.063-25.755-13.648-49.176-12.063-61.129c-46.44,10.8-68.294-10.54-66.601-24.839c1.777-15,13.383-39.678,61.825-52.083"/>
<path fill="none" stroke="#000000" stroke-width="5" stroke-linecap="round" d="M104.082,56.499
	c28.822,3.086,40.982,26.35,29.67,68.01c11.161-5.039,109.441-6.119,118.078,160.557c27.691-75.36-64.313-169.578-32.786-224.372
	c30.24-52.56,138.524-43.203,149.068-13.225"/>
<path fill="none" stroke="#000000" stroke-width="5" stroke-linecap="round" d="M70.033,72.31
	c0.359-8.281,0.359-21.601,17.279-43.56c18.047-23.421,19.08,37.44,14.401,48.959"/>
<path fill="none" stroke="#000000" stroke-width="5" stroke-linecap="round" d="M101.793,33.578
	c0.882-1.219,1.811-2.465,2.799-3.749c13.797-17.908,16.808,11.348,15.369,31.266"/>
<path fill="none" stroke="#000000" stroke-width="5" stroke-linecap="round" d="M144.913,210.546c-1.8,7.562-9,10.441-37.08,9.721
	c-28.081-0.721-47.161,10.802-54,22.682c-11.493,19.963-39.568-19.553,12.599-39.601c21.813-8.382,37.44-4.679,48.959-11.159"/>
<path fill="none" stroke="#000000" stroke-width="5" stroke-linecap="round" d="M201.07,284.708
	c13.682-15.12-45.542-57.926-88.198-21.961c-36.719,30.961-27.719,74.52,12.24,89.64c-25.92-5.399-67.597-1.579-76.32,20.159
	c-5.396,13.447,65.88-2.88,120.24,1.799c54.359,4.682,91.329,4.184,104.038-10.799c35.563-41.912-18.967-180.281,82.802-179.098
	c16.292,0.19,20.698-26.354-1.98-22.576"/>
<path fill="none" stroke="#000000" stroke-width="5" stroke-linecap="round" d="M115.153,2.95
	c-4.201,7.201-5.521,11.161-3.36,17.041c0.719,1.68,0.779,4.08,0.779,4.08"/>
<path fill="none" stroke="#000000" stroke-width="5" stroke-linecap="round" d="M127.273,6.07c-5.521,3.48-13.68,1.68-14.521,17.399
	"/>
<path fill="none" stroke="#000000" stroke-width="5" stroke-linecap="round" d="M128.593,14.83
	c-3.961-1.919-13.081,0.36-15.721,9.24"/>
<path fill="none" stroke="#000000" stroke-width="5" stroke-linecap="round" d="M90.996,2.888
	c-1.077,8.265-2.287,12.428,1.986,17.008c1.315,1.269,2.301,3.457,2.301,3.457"/>
<path fill="none" stroke="#000000" stroke-width="5" stroke-linecap="round" d="M99.778,2.5c-3.737,5.35-8.807,9.018-4.56,20.231"/>
<path fill="none" stroke="#000000" stroke-width="5" stroke-linecap="round" d="M106.463,8.622
	c-4.395-0.233-11.915,5.407-10.903,14.616"/>
<path fill="none" stroke="#000000" stroke-width="5" stroke-linecap="round" d="M326.35,125.77
	c9.182-9.18,33.844,0.179,29.522,16.739c23.218-7.38,28.26,19.26,12.419,23.399"/>
<path fill="none" stroke="#000000" stroke-width="5" stroke-linecap="round" d="M345.316,68.443
	c17.133-4.654,34.16,17.348,19.207,29.707c20.733-7.304,31.816,17.561,14.531,28.415"/>
<path fill="none" stroke="#000000" stroke-width="5" stroke-linecap="round" d="M334.632,96.429
	c14.218-7.739,32.938,10.26,21.958,25.02c16.922-10.979,35.643,15.3,17.643,24.661"/>
<path fill="none" stroke="#000000" stroke-width="5" stroke-linecap="round" d="M351.428,46.901
	c28.116-6.344,34.482,19.318,25.559,28.945c21.677-3.661,28.354,22.729,9.475,30.478"/>
</svg>
